<?xml version="1.0" standalone="no"?>
<!DOCTYPE svg PUBLIC "-//W3C//DTD SVG 20010904//EN"
 "http://www.w3.org/TR/2001/REC-SVG-20010904/DTD/svg10.dtd">
<svg version="1.0" xmlns="http://www.w3.org/2000/svg"
 width="386.000000pt" height="386.000000pt" viewBox="0 0 386.000000 386.000000"
 preserveAspectRatio="xMidYMid meet">
<metadata>
Created by potrace 1.14, written by Peter Selinger 2001-2017
</metadata>
<g transform="translate(0.000000,386.000000) scale(0.100000,-0.100000)"
fill="#000000" stroke="none">
<path d="M1830 2853 c-216 -34 -413 -167 -522 -353 -21 -35 -39 -68 -41 -73
-2 -6 -234 -9 -570 -9 l-567 0 52 -66 c29 -37 59 -73 66 -81 11 -11 96 -14
488 -13 296 0 476 -4 480 -10 4 -5 2 -14 -3 -19 -5 -5 -154 -9 -346 -10 l-337
0 47 -60 c27 -33 55 -70 64 -81 16 -20 25 -21 293 -21 229 0 279 -2 283 -14 3
-8 3 -16 0 -19 -3 -3 -69 -6 -146 -6 l-141 1 26 -32 c14 -18 41 -53 61 -79 22
-30 43 -48 56 -49 12 0 61 -1 109 -1 l86 -1 18 -41 c43 -96 146 -211 254 -281
283 -183 644 -148 891 86 48 46 126 154 149 206 l14 30 102 0 102 0 29 34 c15
19 45 55 66 81 l38 47 -143 -1 c-133 0 -143 1 -143 18 0 18 14 19 277 20 219
1 280 5 290 15 7 8 37 44 65 81 l52 67 -334 0 c-184 0 -339 2 -345 6 -5 3 -10
12 -10 19 0 10 95 13 481 13 l481 0 63 80 64 81 -567 0 c-325 0 -568 4 -569 9
-12 35 -88 146 -136 199 -91 99 -207 169 -352 211 -48 14 -223 24 -275 16z
m239 -173 c243 -66 408 -271 416 -520 9 -246 -130 -456 -362 -547 -61 -24 -81
-27 -193 -27 -112 0 -132 3 -193 27 -139 54 -244 151 -307 282 -48 99 -60 157
-56 265 6 203 122 383 309 481 98 52 275 70 386 39z"/>
<path d="M1811 2290 c-5 -3 -8 -78 -8 -167 0 -142 2 -163 16 -164 118 -10 194
17 231 83 48 86 15 190 -77 237 -23 12 -148 21 -162 11z m146 -82 c42 -25 58
-77 38 -124 -15 -37 -41 -54 -90 -58 l-35 -4 0 103 0 103 28 0 c15 0 41 -9 59
-20z"/>
<path d="M1182 1158 c-14 -14 -4 -38 14 -31 15 6 19 29 6 37 -5 3 -14 0 -20
-6z"/>
<path d="M1802 1161 c-20 -12 -43 -62 -34 -75 4 -6 7 -29 7 -51 0 -29 4 -40
15 -40 10 0 15 11 16 36 1 41 11 62 25 54 5 -4 9 3 9 14 0 14 -5 19 -15 15 -8
-4 -15 -1 -15 5 0 6 12 16 26 21 14 6 22 14 19 20 -7 12 -35 13 -53 1z"/>
<path d="M2524 1156 c-9 -23 7 -38 26 -26 13 8 13 11 -2 26 -16 17 -18 17 -24
0z"/>
<path d="M363 1153 c-9 -3 -13 -29 -13 -84 l0 -79 41 4 c54 6 79 29 79 77 0
37 -28 78 -54 80 -6 0 -18 2 -26 3 -8 2 -21 1 -27 -1z m61 -39 c17 -6 21 -50
8 -72 -5 -7 -18 -14 -30 -17 -20 -4 -22 0 -22 46 0 50 7 57 44 43z"/>
<path d="M639 1156 c-4 -16 -6 -23 -13 -43 -4 -13 -4 -28 0 -35 4 -7 8 -22 9
-35 1 -25 32 -54 55 -50 18 3 20 32 3 32 -19 0 -36 22 -30 39 4 9 16 16 27 16
20 0 29 29 10 31 -5 1 -16 2 -22 3 -7 0 -13 10 -13 20 0 17 -23 36 -26 22z"/>
<path d="M965 1152 c-28 -5 -43 -28 -37 -58 5 -28 11 -31 56 -37 17 -2 31 -8
33 -14 5 -13 -28 -22 -62 -18 -19 2 -25 -2 -25 -17 0 -14 7 -18 33 -17 50 2
66 9 78 30 15 28 -10 64 -47 67 -15 1 -32 6 -37 11 -14 14 14 25 51 22 28 -2
33 1 30 15 -3 17 -31 23 -73 16z"/>
<path d="M2166 1147 c-21 -7 -26 -15 -26 -42 0 -35 16 -46 65 -49 33 -2 24
-30 -10 -32 -52 -3 -55 -4 -49 -19 8 -19 73 -17 97 3 35 31 6 82 -46 82 -17 0
-27 5 -27 15 0 15 15 19 58 15 18 -1 23 3 20 16 -3 20 -41 25 -82 11z"/>
<path d="M2710 1075 c0 -69 3 -85 15 -85 12 0 15 16 15 85 0 69 -3 85 -15 85
-12 0 -15 -16 -15 -85z"/>
<path d="M2829 1147 c-1 -7 -1 -43 -2 -82 -1 -57 2 -71 15 -73 14 -3 16 9 15
77 0 57 -4 82 -14 85 -7 3 -13 0 -14 -7z"/>
<path d="M3444 1151 c4 -6 2 -20 -4 -31 -7 -14 -7 -32 1 -65 12 -49 19 -57 56
-61 18 -2 23 2 21 14 -2 9 -6 15 -9 12 -10 -9 -39 22 -39 41 0 18 10 23 38 20
8 -2 12 5 10 16 -2 12 -11 17 -26 15 -18 -3 -22 1 -19 19 1 16 -4 24 -17 27
-11 2 -16 0 -12 -7z"/>
<path d="M512 1104 c-51 -36 -3 -134 54 -109 10 4 24 7 31 6 8 -1 11 16 11 53
-1 43 -5 54 -17 54 -9 0 -25 3 -36 7 -12 3 -30 -1 -43 -11z m62 -39 c7 -20
-17 -47 -37 -39 -20 7 -23 50 -4 57 17 6 34 -2 41 -18z"/>
<path d="M741 1094 c-24 -30 -24 -34 -12 -67 11 -29 53 -42 81 -27 15 8 20 8
20 -1 0 -7 3 -9 7 -5 4 3 7 31 7 60 1 42 -2 54 -14 54 -8 -1 -27 2 -41 6 -21
6 -30 2 -48 -20z m69 -45 c0 -22 -13 -31 -33 -23 -24 9 -30 37 -11 51 21 15
44 1 44 -28z"/>
<path d="M1082 1104 c-34 -23 -27 -83 10 -104 21 -11 32 -12 45 -4 31 19 27
34 -9 32 -28 -3 -33 1 -36 21 -4 28 15 43 39 30 25 -13 37 11 14 28 -24 17
-36 17 -63 -3z"/>
<path d="M1246 1101 c-24 -26 -20 -77 6 -95 28 -20 52 -20 68 -1 9 11 10 19 3
26 -8 8 -13 7 -17 0 -4 -6 -12 -11 -17 -11 -6 0 1 14 15 31 29 34 32 44 14 55
-23 14 -57 12 -72 -5z m30 -43 c-16 -22 -16 -22 -16 -1 0 12 6 23 13 26 19 7
20 0 3 -25z"/>
<path d="M1379 1109 c-7 -4 -17 -5 -21 -3 -4 3 -8 -22 -8 -55 0 -48 3 -61 15
-61 11 0 15 11 15 40 0 27 5 43 15 47 22 8 25 2 28 -43 1 -27 7 -39 17 -39 11
0 14 10 12 44 -1 25 -7 50 -13 57 -13 16 -44 23 -60 13z"/>
<path d="M1492 1104 c-32 -22 -30 -78 3 -100 28 -18 75 -12 75 10 0 19 -12 27
-25 16 -30 -25 -57 15 -35 50 8 12 13 13 29 3 24 -15 39 1 21 22 -16 19 -40
19 -68 -1z"/>
<path d="M1601 1094 c-12 -15 -21 -32 -21 -39 0 -20 40 -65 59 -65 9 0 26 7
37 15 16 12 17 16 4 24 -10 7 -17 6 -22 -2 -4 -6 -10 -9 -13 -5 -3 3 6 20 22
38 26 31 26 33 8 46 -28 21 -51 17 -74 -12z m39 -24 c-6 -11 -15 -20 -20 -20
-16 0 -11 18 8 29 24 14 24 14 12 -9z"/>
<path d="M1870 1100 c-26 -26 -26 -64 1 -91 36 -36 99 -6 99 46 0 53 -64 81
-100 45z m70 -44 c0 -8 -7 -19 -15 -26 -28 -23 -60 21 -33 48 14 14 48 -2 48
-22z"/>
<path d="M2028 1110 c-15 -5 -29 -5 -32 -2 -7 6 -8 0 -10 -68 -1 -41 2 -50 16
-50 12 0 16 8 16 28 -1 53 2 62 21 62 19 0 37 26 23 33 -4 2 -19 1 -34 -3z"/>
<path d="M2291 1103 c-29 -20 -29 -77 1 -97 30 -21 54 -20 78 4 55 55 -15 138
-79 93z m63 -61 c-17 -26 -41 -26 -49 -1 -10 32 22 56 44 34 12 -12 13 -20 5
-33z"/>
<path d="M2422 1100 c-24 -23 -27 -36 -13 -73 16 -41 81 -48 95 -11 5 12 -1
15 -25 12 -41 -4 -62 23 -37 48 14 15 19 15 33 4 14 -12 18 -11 25 1 21 32
-46 49 -78 19z"/>
<path d="M2591 1101 c-26 -26 -27 -65 -1 -91 22 -22 55 -26 65 -10 5 8 11 7
21 -1 12 -10 14 -2 14 49 0 51 -3 61 -17 61 -10 -1 -28 2 -40 6 -15 5 -27 1
-42 -14z m63 -33 c13 -22 -8 -48 -34 -41 -22 6 -26 33 -8 51 15 15 28 11 42
-10z"/>
<path d="M2938 1112 l-58 -3 0 -59 c0 -47 3 -60 15 -60 11 0 15 12 15 45 0 33
4 45 15 45 11 0 15 -12 15 -45 0 -33 4 -45 15 -45 11 0 15 12 15 45 0 33 4 45
15 45 11 0 15 -12 15 -45 0 -33 4 -45 15 -45 11 0 15 12 15 48 0 65 -17 78
-92 74z"/>
<path d="M3206 1101 c-26 -29 -29 -65 -5 -89 22 -24 40 -27 70 -12 14 8 19 7
19 -2 0 -10 2 -10 8 -1 6 10 7 62 3 104 -1 3 -7 6 -13 7 -7 0 -25 3 -39 6 -18
4 -31 0 -43 -13z m64 -52 c0 -11 -2 -19 -4 -19 -2 0 -11 -3 -19 -6 -10 -3 -20
3 -27 17 -11 19 -10 25 5 36 22 15 45 1 45 -28z"/>
<path d="M3342 1104 c-41 -29 -20 -114 29 -114 24 0 53 26 45 39 -6 9 -11 9
-21 1 -19 -16 -45 -1 -45 25 0 27 17 36 42 24 24 -13 35 11 13 28 -24 17 -36
17 -63 -3z"/>
<path d="M1175 1055 c1 -30 4 -57 7 -61 15 -15 26 10 26 61 0 45 -4 55 -18 55
-14 0 -17 -9 -15 -55z"/>
<path d="M2520 1050 c0 -47 3 -60 15 -60 12 0 15 13 15 60 0 47 -3 60 -15 60
-12 0 -15 -13 -15 -60z"/>
<path d="M3050 1023 c0 -69 2 -81 15 -77 8 4 15 17 15 30 0 21 4 23 24 18 49
-12 84 56 52 99 -11 14 -25 17 -60 15 l-46 -3 0 -82z m88 33 c5 -22 -13 -35
-39 -29 -19 5 -26 33 -12 47 13 13 48 1 51 -18z"/>
</g>
</svg>
